<svg width="37" height="34" viewBox="0 0 37 34" fill="none" xmlns="http://www.w3.org/2000/svg">
<path d="M2 0.46875V4.11426H7V0.46875H30V4.11426H35V0.46875H37V34H35V31.8857H30V34H7V31.8857H2V34H0V0.46875H2ZM2 25.7139V29.8281H7V25.7139H2ZM30 25.7139V29.8281H35V25.7139H30ZM2 19.543V23.6572H7V19.543H2ZM30 19.543V23.6572H35V19.543H30ZM2 12.3428V16.457H7V12.3428H2ZM30 12.3428V16.457H35V12.3428H30ZM2 6.17188V10.2861H7V6.17188H2ZM30 6.17188V10.2861H35V6.17188H30Z" fill="#478CBF"/>
<path d="M7 19.6777C7.5184 19.7536 7.91521 20.1834 7.95215 20.7197L8.13965 23.457L13.4297 23.8408L13.79 21.3604C13.8702 20.8086 14.3441 20.3917 14.8926 20.3916H22.1094C22.658 20.3916 23.1328 20.8086 23.2129 21.3604L23.5723 23.8408L28.8623 23.457L29.0508 20.7197C29.0876 20.1843 29.4829 19.7556 30 19.6787V23.6572H31.0703L31.0186 24.417C30.9801 24.9762 30.5365 25.4286 29.9863 25.4688L22.7002 25.9971C22.674 25.9991 22.6468 26 22.6201 26C22.072 26 21.5977 25.5838 21.5176 25.0322L21.1475 22.4795H15.8545L15.4844 25.0322C15.4041 25.5839 14.9312 26 14.3838 26C14.3566 26 14.3294 25.9991 14.3018 25.9971L7.0166 25.4688C6.46626 25.4286 6.02177 24.9762 5.9834 24.417L5.93164 23.6572H7V19.6777ZM5.64258 19.543H2V21.0322L0 20.7051L0.00878906 19.3799C0.0440103 19.3799 0.0703106 18.9991 0.105469 19L5.64258 19.543ZM36.8936 19C36.9295 18.9992 36.9902 19.3799 36.9902 19.3799L37 20.7012L35 21.0303V19.543H31.3594L36.8936 19ZM11.5 10C12.8807 10 14 11.1193 14 12.5C14 13.8808 12.8807 15 11.5 15C10.1193 15 9 13.8808 9 12.5C9 11.1193 10.1193 10 11.5 10ZM25.5 10C26.8807 10 28 11.1193 28 12.5C28 13.8808 26.8807 15 25.5 15C24.1193 15 23 13.8808 23 12.5C23 11.1193 24.1193 10 25.5 10Z" fill="white"/>
</svg>
