<svg width="120" height="43" viewBox="0 0 120 43" fill="none" xmlns="http://www.w3.org/2000/svg">
<path d="M70.5061 14.3996C69.7735 14.3996 69.1599 14.7363 68.662 15.4076C68.1668 16.0796 67.9179 17.0227 67.9179 18.2364C67.9179 19.4526 68.1545 20.3838 68.6286 21.0326C69.1018 21.6835 69.7236 22.0076 70.4949 22.0076C71.2658 22.0076 71.8921 21.6794 72.373 21.0209C72.854 20.3647 73.095 19.4255 73.095 18.2027C73.095 16.9809 72.8461 16.0404 72.3499 15.3837C71.8543 14.7277 71.2396 14.3996 70.5061 14.3996ZM70.4949 26.4738C68.35 26.4738 66.6009 25.7715 65.249 24.3673C63.899 22.9619 63.2236 20.9111 63.2236 18.215C63.2236 15.5174 63.9067 13.4749 65.2728 12.0841C66.6393 10.6951 68.4032 9.99997 70.5639 9.99997C72.7242 9.99997 74.4692 10.6825 75.7966 12.0516C77.1264 13.4181 77.7901 15.4896 77.7901 18.2601C77.7901 21.0326 77.111 23.0948 75.7514 24.4481C74.3918 25.7985 72.6408 26.4738 70.4949 26.4738Z" fill="white"/>
<path d="M84.2086 14.5582V21.4115C84.2086 21.7316 84.2322 21.9333 84.278 22.0179C84.3234 22.1021 84.4612 22.1444 84.6896 22.1444C85.5303 22.1444 86.1671 21.8302 86.6024 21.2039C87.0388 20.5782 87.2546 19.5364 87.2546 18.0774C87.2546 16.6178 87.0288 15.6668 86.5801 15.2249C86.1291 14.7819 85.4149 14.5582 84.4377 14.5582H84.2086ZM79.8115 25.1913V11.4444C79.8115 11.0622 79.9065 10.7606 80.0982 10.537C80.2887 10.3168 80.5366 10.2049 80.8429 10.2049H84.6677C87.095 10.2049 88.9386 10.8174 90.1972 12.0396C91.458 13.2614 92.0883 15.1852 92.0883 17.813C92.0883 23.4347 89.6902 26.245 84.8955 26.245H80.9798C80.2016 26.245 79.8115 25.8945 79.8115 25.1913Z" fill="white"/>
<path d="M100.882 14.3996C100.149 14.3996 99.5339 14.7363 99.0368 15.4076C98.5418 16.0796 98.2939 17.0227 98.2939 18.2364C98.2939 19.4526 98.5311 20.3838 99.0038 21.0326C99.4764 21.6835 100.099 22.0076 100.87 22.0076C101.641 22.0076 102.268 21.6794 102.748 21.0209C103.229 20.3647 103.47 19.4255 103.47 18.2027C103.47 16.9809 103.222 16.0404 102.726 15.3837C102.229 14.7277 101.615 14.3996 100.882 14.3996ZM100.87 26.4738C98.7244 26.4738 96.9765 25.7715 95.6259 24.3673C94.2742 22.9619 93.5986 20.9111 93.5986 18.215C93.5986 15.5174 94.2817 13.4749 95.6476 12.0841C97.0151 10.6951 98.778 9.99997 100.94 9.99997C103.1 9.99997 104.844 10.6825 106.173 12.0516C107.502 13.4181 108.165 15.4896 108.165 18.2601C108.165 21.0326 107.486 23.0948 106.127 24.4481C104.768 25.7985 103.015 26.4738 100.87 26.4738Z" fill="white"/>
<path d="M116.701 25.8797C116.701 26.1834 115.946 26.3374 114.434 26.3374C112.923 26.3374 112.166 26.1834 112.166 25.8797V14.3763H109.418C109.158 14.3763 108.975 14.0258 108.869 13.3213C108.823 12.986 108.801 12.6428 108.801 12.2909C108.801 11.941 108.823 11.5964 108.869 11.2605C108.975 10.5579 109.158 10.2048 109.418 10.2048H119.381C119.641 10.2048 119.823 10.5579 119.932 11.2605C119.976 11.5964 120 11.941 120 12.2909C120 12.6428 119.976 12.986 119.932 13.3213C119.823 14.0258 119.641 14.3763 119.381 14.3763H116.701V25.8797Z" fill="white"/>
<path d="M59.1731 17.7375C57.9401 17.7184 56.5289 17.9756 56.5289 17.9756V20.3832H57.948L57.9321 21.4564C57.9321 21.854 57.5382 22.0537 56.7525 22.0537C55.9658 22.0537 55.271 21.7204 54.6682 21.0558C54.0641 20.3903 53.7637 19.4175 53.7637 18.1357C53.7637 16.8512 54.0572 15.9042 54.6451 15.2932C55.2318 14.6827 56.0009 14.3764 56.9468 14.3764C57.3442 14.3764 57.7557 14.4406 58.1835 14.5715C58.6115 14.7011 58.8974 14.8227 59.0432 14.9366C59.1879 15.0537 59.3254 15.1091 59.4555 15.1091C59.5849 15.1091 59.7944 14.9577 60.0843 14.6514C60.3746 14.346 60.6347 13.883 60.8642 13.2659C61.0926 12.6454 61.207 12.1699 61.207 11.8326C61.207 11.498 61.1997 11.2672 61.1849 11.1454C60.8642 10.7943 60.2722 10.5159 59.4088 10.3089C58.547 10.1025 57.5808 9.99997 56.5119 9.99997C54.1599 9.99997 52.3207 10.7407 50.9925 12.2223C49.6634 13.7045 49 15.6284 49 17.9967C49 20.7773 49.679 22.8852 51.037 24.321C52.3974 25.7567 54.1834 26.4738 56.3977 26.4738C57.5885 26.4738 58.6454 26.3713 59.5689 26.1649C60.4933 25.9593 61.1078 25.7482 61.4135 25.5347L61.5052 18.3644C61.5052 17.9478 60.4061 17.7586 59.1731 17.7375Z" fill="white"/>
<path d="M2 9.46875V13.1143H7V9.46875H30V13.1143H35V9.46875H37V43H35V40.8857H30V43H7V40.8857H2V43H0V9.46875H2ZM2 34.7139V38.8281H7V34.7139H2ZM30 34.7139V38.8281H35V34.7139H30ZM2 28.543V32.6572H7V28.543H2ZM30 28.543V32.6572H35V28.543H30ZM2 21.3428V25.457H7V21.3428H2ZM30 21.3428V25.457H35V21.3428H30ZM2 15.1719V19.2861H7V15.1719H2ZM30 15.1719V19.2861H35V15.1719H30Z" fill="#478CBF"/>
<path d="M7 28.6777C7.5184 28.7536 7.91521 29.1834 7.95215 29.7197L8.13965 32.457L13.4297 32.8408L13.79 30.3604C13.8702 29.8086 14.3441 29.3917 14.8926 29.3916H22.1094C22.658 29.3916 23.1328 29.8086 23.2129 30.3604L23.5723 32.8408L28.8623 32.457L29.0508 29.7197C29.0876 29.1843 29.4829 28.7556 30 28.6787V32.6572H31.0703L31.0186 33.417C30.9801 33.9762 30.5365 34.4286 29.9863 34.4688L22.7002 34.9971C22.674 34.9991 22.6468 35 22.6201 35C22.072 35 21.5977 34.5838 21.5176 34.0322L21.1475 31.4795H15.8545L15.4844 34.0322C15.4041 34.5839 14.9312 35 14.3838 35C14.3566 35 14.3294 34.9991 14.3018 34.9971L7.0166 34.4688C6.46626 34.4286 6.02177 33.9762 5.9834 33.417L5.93164 32.6572H7V28.6777ZM5.64258 28.543H2V30.0322L0 29.7051L0.00878906 28.3799C0.0440103 28.3799 0.0703106 27.9991 0.105469 28L5.64258 28.543ZM36.8936 28C36.9295 27.9992 36.9902 28.3799 36.9902 28.3799L37 29.7012L35 30.0303V28.543H31.3594L36.8936 28ZM11.5 19C12.8807 19 14 20.1193 14 21.5C14 22.8808 12.8807 24 11.5 24C10.1193 24 9 22.8808 9 21.5C9 20.1193 10.1193 19 11.5 19ZM25.5 19C26.8807 19 28 20.1193 28 21.5C28 22.8808 26.8807 24 25.5 24C24.1193 24 23 22.8808 23 21.5C23 20.1193 24.1193 19 25.5 19Z" fill="white"/>
<path d="M117.204 41.864C117.204 41.966 116.626 42.017 115.47 42.017C114.564 42.0057 114.11 41.9603 114.11 41.881V30.304C114.11 30.134 114.66 30.049 115.759 30.049C116.723 30.083 117.204 30.1397 117.204 30.219V41.864Z" fill="white"/>
<path d="M112.269 41.541C111.555 41.9603 110.637 42.17 109.515 42.17C108.393 42.17 107.446 41.7903 106.676 41.031C105.905 40.2603 105.52 39.2007 105.52 37.852C105.52 36.492 105.888 35.3983 106.625 34.571C107.373 33.7437 108.313 33.33 109.447 33.33C110.58 33.33 111.453 33.619 112.065 34.197C112.688 34.775 113 35.4777 113 36.305C113 38.141 111.946 39.059 109.838 39.059H108.665C108.665 39.399 108.755 39.637 108.937 39.773C109.129 39.8977 109.407 39.96 109.77 39.96C110.563 39.96 111.317 39.7787 112.031 39.416C112.042 39.4047 112.093 39.484 112.184 39.654C112.456 40.1413 112.592 40.555 112.592 40.895C112.592 41.2237 112.484 41.439 112.269 41.541ZM110.144 36.628C110.144 36.152 109.911 35.914 109.447 35.914C109.231 35.914 109.044 35.982 108.886 36.118C108.738 36.2427 108.665 36.4297 108.665 36.679V37.206H109.583C109.957 37.206 110.144 37.0133 110.144 36.628Z" fill="white"/>
<path d="M104.001 41.541C103.287 41.9603 102.369 42.17 101.247 42.17C100.125 42.17 99.1787 41.7903 98.4081 41.031C97.6374 40.2603 97.2521 39.2007 97.2521 37.852C97.2521 36.492 97.6204 35.3983 98.3571 34.571C99.1051 33.7437 100.046 33.33 101.179 33.33C102.312 33.33 103.185 33.619 103.797 34.197C104.42 34.775 104.732 35.4777 104.732 36.305C104.732 38.141 103.678 39.059 101.57 39.059H100.397C100.397 39.399 100.488 39.637 100.669 39.773C100.862 39.8977 101.139 39.96 101.502 39.96C102.295 39.96 103.049 39.7787 103.763 39.416C103.774 39.4047 103.825 39.484 103.916 39.654C104.188 40.1413 104.324 40.555 104.324 40.895C104.324 41.2237 104.216 41.439 104.001 41.541ZM101.876 36.628C101.876 36.152 101.644 35.914 101.179 35.914C100.964 35.914 100.777 35.982 100.618 36.118C100.471 36.2427 100.397 36.4297 100.397 36.679V37.206H101.315C101.689 37.206 101.876 37.0133 101.876 36.628Z" fill="white"/>
<path d="M94.5578 41.983C94.5578 42.0623 94.0422 42.102 93.0108 42.102C91.9795 42.0793 91.4638 42.034 91.4638 41.966V36.322H91.0048C90.8235 36.322 90.6762 36.2143 90.5628 35.999C90.4608 35.7723 90.4098 35.4947 90.4098 35.166C90.4098 33.942 90.7725 33.33 91.4978 33.33C92.0078 33.33 92.4328 33.4887 92.7728 33.806C93.1128 34.112 93.2828 34.4633 93.2828 34.86C93.5208 34.3953 93.8382 34.027 94.2348 33.755C94.6428 33.4717 95.0565 33.33 95.4758 33.33C96.1332 33.33 96.5298 33.5 96.6658 33.84C96.6998 33.9307 96.7168 34.0667 96.7168 34.248C96.7168 34.418 96.6602 34.7297 96.5468 35.183C96.4448 35.6363 96.3372 35.965 96.2238 36.169C96.1105 36.373 96.0425 36.475 96.0198 36.475C95.9972 36.475 95.8895 36.4353 95.6968 36.356C95.5155 36.2653 95.3512 36.22 95.2038 36.22C94.7732 36.22 94.5578 36.56 94.5578 37.24V41.983Z" fill="white"/>
<path d="M86.8746 33.585C86.8746 33.483 87.1863 33.432 87.8096 33.432C89.215 33.432 89.9063 33.4773 89.8836 33.568L88.2176 41.83C88.1836 42.0113 87.5546 42.102 86.3306 42.102C85.1066 42.102 84.4776 42.0113 84.4436 41.83L83.7466 38.022L82.8796 41.83C82.8456 42 82.194 42.085 80.9246 42.085C79.6666 42.085 79.0206 41.983 78.9866 41.779L77.4736 33.5C77.4396 33.432 77.927 33.398 78.9356 33.398C79.933 33.4093 80.4316 33.432 80.4316 33.466L81.2136 39.212L82.6246 33.534C82.6473 33.466 83.0213 33.432 83.7466 33.432C84.472 33.432 84.846 33.466 84.8686 33.534L86.2626 39.144L86.8746 33.585Z" fill="white"/>
<path d="M70.0668 40.997C69.3641 40.215 69.0128 39.1327 69.0128 37.75C69.0128 36.3673 69.3641 35.285 70.0668 34.503C70.7808 33.721 71.7385 33.33 72.9398 33.33C74.1411 33.33 75.0931 33.721 75.7958 34.503C76.4985 35.285 76.8498 36.3673 76.8498 37.75C76.8498 39.1327 76.4985 40.215 75.7958 40.997C75.0931 41.779 74.1411 42.17 72.9398 42.17C71.7385 42.17 70.7808 41.779 70.0668 40.997ZM72.9398 36.169C72.3051 36.169 71.9878 36.6903 71.9878 37.733C71.9878 38.7757 72.3051 39.297 72.9398 39.297C73.5858 39.297 73.9088 38.7757 73.9088 37.733C73.9088 36.6903 73.5858 36.169 72.9398 36.169Z" fill="white"/>
<path d="M63.6582 41.881C63.6582 41.983 63.1822 42.034 62.2302 42.034C61.2895 42.034 60.8192 41.9547 60.8192 41.796V30.151C60.8192 30.0717 60.9949 30.015 61.3462 29.981C61.6975 29.947 61.9922 29.93 62.2302 29.93C63.1822 29.93 63.6582 30.032 63.6582 30.236V33.636C64.2929 33.4433 64.7745 33.347 65.1032 33.347C65.9645 33.347 66.6445 33.5793 67.1432 34.044C67.6419 34.4973 67.8912 35.3473 67.8912 36.594V41.864C67.8912 41.966 67.4492 42.017 66.5652 42.017C65.5679 41.983 65.0692 41.9263 65.0692 41.847V36.849C65.0692 36.2937 64.8879 36.016 64.5252 36.016C64.2759 36.016 63.9869 36.135 63.6582 36.373V41.881Z" fill="white"/>
<path d="M52.3149 37.852C52.5303 38.022 52.8986 38.2543 53.4199 38.549C53.9526 38.8437 54.4569 38.991 54.9329 38.991C55.4203 38.991 55.6639 38.804 55.6639 38.43C55.6639 38.26 55.5959 38.1127 55.4599 37.988C55.3239 37.852 55.0746 37.699 54.7119 37.529C54.3493 37.359 54.0773 37.2287 53.8959 37.138C53.7146 37.036 53.4709 36.8773 53.1649 36.662C52.8703 36.4353 52.6436 36.203 52.4849 35.965C52.0316 35.319 51.8049 34.4973 51.8049 33.5C51.8049 32.5027 52.1733 31.664 52.9099 30.984C53.6579 30.2927 54.6326 29.947 55.8339 29.947C56.6499 29.947 57.4036 30.0377 58.0949 30.219C58.7863 30.389 59.1433 30.6157 59.1659 30.899C59.1659 30.933 59.1659 30.967 59.1659 31.001C59.1659 31.3977 59.0413 31.902 58.7919 32.514C58.5426 33.1147 58.3669 33.449 58.2649 33.517C57.5396 33.143 56.8879 32.956 56.3099 32.956C55.7433 32.956 55.4599 33.16 55.4599 33.568C55.4599 33.8173 55.6696 34.0383 56.0889 34.231C56.1796 34.2763 56.3099 34.3387 56.4799 34.418C56.6499 34.4973 56.8426 34.5937 57.0579 34.707C57.2846 34.809 57.5226 34.945 57.7719 35.115C58.0326 35.2737 58.3103 35.489 58.6049 35.761C59.2056 36.3277 59.5059 37.0757 59.5059 38.005C59.5059 39.2177 59.1716 40.2093 58.5029 40.98C57.8343 41.7507 56.8029 42.1473 55.4089 42.17C54.7289 42.17 54.1113 42.1133 53.5559 42C53.0119 41.8867 52.5359 41.6657 52.1279 41.337C51.7199 41.0083 51.5159 40.6117 51.5159 40.147C51.5159 39.6823 51.6009 39.2233 51.7709 38.77C51.9409 38.3053 52.1223 37.9993 52.3149 37.852Z" fill="white"/>
</svg>
